<svg width="24" height="24" viewBox="0 0 24 24" fill="none" xmlns="http://www.w3.org/2000/svg">
<mask id="path-1-inside-1_1119_4733" fill="white">
<path fill-rule="evenodd" clip-rule="evenodd" d="M23.0035 8.16506L23.0037 8.16512H23.0037C23.0039 8.16512 23.004 8.16525 23.004 8.16541V21.7776C23.004 22.4526 22.4568 22.9998 21.7818 22.9998H14.1957C14.1996 22.96 14.2016 22.9197 14.2016 22.8788V16.5113C14.2016 15.8363 13.6544 15.2891 12.9793 15.2891H11.023C10.348 15.2891 9.80078 15.8363 9.80078 16.5113V22.8788C9.80078 22.9197 9.80278 22.96 9.80669 22.9998H2.22224C1.54721 22.9998 1 22.4526 1 21.7776V8.16541C1 8.16525 1.00013 8.16512 1.00029 8.16512H1.00033L1.00051 8.16506L11.3188 1.20868C11.7317 0.930277 12.2723 0.930277 12.6852 1.20868L23.0035 8.16506Z"/>
</mask>
<path fill-rule="evenodd" clip-rule="evenodd" d="M23.0035 8.16506L23.0037 8.16512H23.0037C23.0039 8.16512 23.004 8.16525 23.004 8.16541V21.7776C23.004 22.4526 22.4568 22.9998 21.7818 22.9998H14.1957C14.1996 22.96 14.2016 22.9197 14.2016 22.8788V16.5113C14.2016 15.8363 13.6544 15.2891 12.9793 15.2891H11.023C10.348 15.2891 9.80078 15.8363 9.80078 16.5113V22.8788C9.80078 22.9197 9.80278 22.96 9.80669 22.9998H2.22224C1.54721 22.9998 1 22.4526 1 21.7776V8.16541C1 8.16525 1.00013 8.16512 1.00029 8.16512H1.00033L1.00051 8.16506L11.3188 1.20868C11.7317 0.930277 12.2723 0.930277 12.6852 1.20868L23.0035 8.16506Z" fill="#0F34CA"/>
<path d="M23.0037 8.16512L22.7127 9.12185C22.807 9.15054 22.9051 9.16512 23.0037 9.16512V8.16512ZM23.0035 8.16506L22.4445 8.99422C22.527 9.04984 22.6173 9.09284 22.7125 9.12179L23.0035 8.16506ZM14.1957 22.9998L13.2005 22.902C13.1729 23.1829 13.2652 23.4624 13.4548 23.6715C13.6443 23.8806 13.9134 23.9998 14.1957 23.9998V22.9998ZM9.80669 22.9998V23.9998C10.0889 23.9998 10.358 23.8806 10.5476 23.6715C10.7371 23.4624 10.8295 23.1829 10.8019 22.902L9.80669 22.9998ZM1.00033 8.16512V9.16512C1.09937 9.16512 1.19787 9.1504 1.29259 9.12146L1.00033 8.16512ZM1.00051 8.16506L1.29277 9.1214C1.38749 9.09245 1.47739 9.04959 1.55952 8.99422L1.00051 8.16506ZM11.3188 1.20868L10.7598 0.379518V0.379519L11.3188 1.20868ZM12.6852 1.20868L12.1262 2.03784L12.1262 2.03784L12.6852 1.20868ZM23.2946 7.20838L23.2945 7.20833L22.7125 9.12179L22.7127 9.12185L23.2946 7.20838ZM23.0037 7.16512H23.0037V9.16512H23.0037V7.16512ZM24.004 8.16541C24.004 7.61296 23.5562 7.16512 23.0037 7.16512V9.16512C22.4516 9.16512 22.004 8.71753 22.004 8.16541H24.004ZM24.004 21.7776V8.16541H22.004V21.7776H24.004ZM21.7818 23.9998C23.0091 23.9998 24.004 23.0049 24.004 21.7776H22.004C22.004 21.9003 21.9045 21.9998 21.7818 21.9998V23.9998ZM14.1957 23.9998H21.7818V21.9998H14.1957V23.9998ZM13.2016 22.8788C13.2016 22.887 13.2012 22.8947 13.2005 22.902L15.1909 23.0976C15.198 23.0254 15.2016 22.9524 15.2016 22.8788H13.2016ZM13.2016 16.5113V22.8788H15.2016V16.5113H13.2016ZM12.9793 16.2891C13.1021 16.2891 13.2016 16.3886 13.2016 16.5113H15.2016C15.2016 15.284 14.2067 14.2891 12.9793 14.2891V16.2891ZM11.023 16.2891H12.9793V14.2891H11.023V16.2891ZM10.8008 16.5113C10.8008 16.3886 10.9003 16.2891 11.023 16.2891V14.2891C9.79571 14.2891 8.80078 15.284 8.80078 16.5113H10.8008ZM10.8008 22.8788V16.5113H8.80078V22.8788H10.8008ZM10.8019 22.902C10.8012 22.8947 10.8008 22.887 10.8008 22.8788H8.80078C8.80078 22.9524 8.80439 23.0254 8.81149 23.0976L10.8019 22.902ZM2.22224 23.9998H9.80669V21.9998H2.22224V23.9998ZM0 21.7776C0 23.0049 0.994925 23.9998 2.22224 23.9998V21.9998C2.0995 21.9998 2 21.9003 2 21.7776H0ZM0 8.16541V21.7776H2V8.16541H0ZM1.00029 7.16512C0.448071 7.16512 0 7.61274 0 8.16541H2C2 8.71776 1.55219 9.16512 1.00029 9.16512V7.16512ZM1.00033 7.16512H1.00029V9.16512H1.00033V7.16512ZM0.708257 7.20872L0.708073 7.20878L1.29259 9.12146L1.29277 9.1214L0.708257 7.20872ZM10.7598 0.379519L0.441507 7.3359L1.55952 8.99422L11.8778 2.03784L10.7598 0.379519ZM13.2442 0.379519C12.4934 -0.126669 11.5106 -0.126669 10.7598 0.379518L11.8778 2.03784C11.9529 1.98722 12.0511 1.98722 12.1262 2.03784L13.2442 0.379519ZM23.5625 7.3359L13.2442 0.379519L12.1262 2.03784L22.4445 8.99422L23.5625 7.3359Z" fill="#0F34CA" mask="url(#path-1-inside-1_1119_4733)"/>
</svg>
