<svg width="662" height="450" viewBox="0 0 662 450" fill="none" xmlns="http://www.w3.org/2000/svg">
<path d="M149.68 48.5988H253.249C265.987 48.5988 276.313 38.2787 276.313 25.5494C276.313 12.8201 265.987 2.5 253.249 2.5H150.388C111.587 2.5 79.0951 34.2274 79.8387 73.0026C80.5583 110.567 111.251 140.808 149.02 140.808H156.709H201.986C214.724 140.808 225.051 151.128 225.051 163.858C225.051 176.587 214.724 186.907 201.986 186.907H102.891C90.1536 186.907 79.8267 197.227 79.8267 209.957C79.8267 222.686 90.1536 233.006 102.891 233.006H201.986C240.199 233.006 271.18 202.046 271.18 163.858C271.18 125.67 240.199 94.7096 201.986 94.7096H196.001H149.02C135.911 94.7096 125.356 83.7782 125.98 70.5454C126.568 58.1518 137.254 48.6108 149.668 48.6108L149.68 48.5988Z" fill="#B53B20"/>
<path d="M418.563 25.5494C418.563 12.8201 408.236 2.5 395.498 2.5H255.396C242.658 2.5 232.331 12.8201 232.331 25.5494C232.331 38.2787 242.658 48.5988 255.396 48.5988H297.723C298.886 48.5988 299.822 49.5337 299.822 50.6964V209.957C299.822 222.686 310.149 233.006 322.886 233.006C335.624 233.006 345.951 222.686 345.951 209.957V50.6964C345.951 49.5337 346.886 48.5988 348.05 48.5988H395.498C408.236 48.5988 418.563 38.2787 418.563 25.5494Z" fill="#1635B1"/>
<path d="M510.785 46.3333C510.785 22.325 495.505 2.8595 476.674 2.8595C457.843 2.8595 442.563 22.325 442.563 46.3333C442.563 65.0677 451.87 81.0333 464.908 87.1462L462.725 225.574C462.665 229.65 465.951 232.994 470.029 232.994H482.467C486.545 232.994 489.844 229.65 489.772 225.574L487.601 87.5058C501.082 81.7045 510.785 65.4632 510.785 46.3333Z" fill="white" stroke="#939BAA" stroke-width="4" stroke-linecap="round" stroke-linejoin="round"/>
<path d="M575.913 4.58544C572.687 4.75325 570.264 7.6539 570.264 10.8782V53.9445C570.264 54.9273 569.472 55.7184 568.489 55.7184H556.627C555.643 55.7184 554.851 54.9273 554.851 53.9445V9.17613C554.851 5.93986 552.429 3.0512 549.202 2.88339C545.76 2.7036 542.905 5.43645 542.905 8.84052V53.9445C542.905 54.9273 542.114 55.7184 541.13 55.7184H529.268C528.285 55.7184 527.493 54.9273 527.493 53.9445V10.8782C527.493 7.64191 525.07 4.75325 521.844 4.58544C518.401 4.40565 515.547 7.1385 515.547 10.5426V55.7184C518.102 70.5094 526.557 82.4596 537.616 87.3739L534.929 225.562C534.845 229.65 538.144 233.006 542.234 233.006H554.624C558.714 233.006 562.012 229.65 561.928 225.562L559.253 87.7215C570.72 83.0469 579.547 70.8809 582.174 55.7304V10.5546C582.174 7.1505 579.331 4.41765 575.877 4.59744L575.913 4.58544Z" fill="white" stroke="#939BAA" stroke-width="4" stroke-linecap="round" stroke-linejoin="round"/>
<path d="M0 381.371C0 370.751 1.99101 361.174 5.97304 352.652C9.95507 344.13 15.3404 336.902 22.129 330.957C28.9057 325.024 36.8098 320.481 45.8293 317.328C54.8488 314.188 64.4561 312.618 74.663 312.618C84.87 312.618 94.7291 314.188 103.821 317.328C112.912 320.469 120.816 324.976 127.521 330.849C134.238 336.722 139.539 343.914 143.461 352.436C147.371 360.958 149.338 370.535 149.338 381.155C149.338 391.775 147.383 401.1 143.461 409.55C139.551 418 134.238 425.204 127.521 431.137C120.804 437.07 112.912 441.613 103.821 444.765C94.7291 447.906 85.0139 449.476 74.663 449.476C64.3122 449.476 54.8488 447.906 45.8293 444.765C36.8098 441.625 28.9057 437.118 22.129 431.245C15.3404 425.372 9.96706 418.216 5.97304 409.766C1.99101 401.316 0 391.846 0 381.371ZM74.663 413.649C79.4127 413.649 83.7545 412.81 87.6646 411.132C91.5747 409.454 94.861 407.189 97.5237 404.324C100.174 401.459 102.237 398.067 103.713 394.16C105.188 390.252 105.92 385.985 105.92 381.371C105.92 376.756 105.188 372.249 103.713 368.27C102.249 364.29 100.186 360.826 97.5237 357.89C94.861 354.953 91.5747 352.688 87.6646 351.081C83.7545 349.475 79.4127 348.672 74.663 348.672C69.9134 348.672 65.4036 349.511 61.5535 351.189C57.7034 352.867 54.4171 355.169 51.6944 358.105C48.9718 361.042 46.9088 364.494 45.5055 368.485C44.1022 372.465 43.4065 376.768 43.4065 381.383C43.4065 385.997 44.1022 390.252 45.5055 394.172C46.8968 398.091 48.9598 401.471 51.6944 404.336C54.4171 407.201 57.7034 409.466 61.5535 411.144C65.3916 412.822 69.7695 413.661 74.663 413.661V413.649Z" fill="#939BAA"/>
<path d="M196.379 329.806C199.594 326.174 203.648 323.453 208.541 321.631C213.435 319.822 218.532 318.911 223.858 318.911H251.12L243.564 354.965H218.4C215.882 354.965 213.507 355.528 211.264 356.643C209.033 357.758 207.066 359.304 205.387 361.258C203.708 363.211 202.376 365.525 201.405 368.174C200.421 370.835 199.93 373.699 199.93 376.768V443.207H156.307V318.911H193.645L196.367 329.806H196.379Z" fill="#939BAA"/>
<path d="M364.247 276.156H407.666V443.207H370.328L366.97 433.151C361.093 438.041 354.484 441.673 347.156 444.046C339.816 446.42 332.223 447.534 324.403 447.402C314.616 447.259 305.669 445.521 297.561 442.164C289.453 438.808 282.46 434.194 276.583 428.332C270.706 422.459 266.16 415.543 262.946 407.584C259.731 399.614 258.124 390.888 258.124 381.383C258.124 371.878 259.839 362.624 263.257 354.45C266.676 346.275 271.365 339.251 277.303 333.378C283.252 327.505 290.232 322.938 298.28 319.654C306.316 316.37 314.952 314.728 324.187 314.728C331.744 314.728 338.832 315.638 345.477 317.448C352.122 319.27 358.382 322.135 364.247 326.042V276.156ZM330.892 411.348C339.708 411.348 346.76 408.555 352.074 402.97C357.387 397.384 360.038 390.18 360.038 381.383C360.038 372.585 357.387 364.794 352.074 359.268C346.76 353.754 339.696 350.986 330.892 350.986C322.088 350.986 315.024 353.742 309.711 359.268C304.397 364.794 301.734 372.153 301.734 381.383C301.734 390.612 304.385 397.384 309.711 402.97C315.024 408.555 322.088 411.348 330.892 411.348Z" fill="#939BAA"/>
<path d="M460.8 403.593C467.097 411.552 476.248 415.543 488.278 415.543C496.662 415.543 503.871 414.249 509.88 411.672C515.889 409.083 521.55 404.935 526.863 399.194L555.181 420.158C547.205 429.375 538.09 436.579 527.811 441.745C517.532 446.911 505.478 449.5 491.625 449.5C480.302 449.5 469.951 447.93 460.584 444.789C451.217 441.649 443.097 437.142 436.26 431.269C429.411 425.396 424.098 418.24 420.32 409.79C416.542 401.34 414.659 391.798 414.659 381.179C414.659 370.559 416.578 361.438 420.428 352.987C424.266 344.537 429.555 337.345 436.26 331.4C442.977 325.467 450.797 320.852 459.744 317.568C468.692 314.284 478.275 312.642 488.482 312.642C498.689 312.642 508.62 314.212 517.424 317.352C526.227 320.493 533.784 325 540.081 330.873C546.378 336.746 551.307 343.938 554.869 352.46C558.432 360.982 560.219 370.631 560.219 381.383L460.8 403.605V403.593ZM489.945 346.155C480.434 346.155 472.602 348.457 466.449 353.071C460.296 357.686 456.386 364.11 454.707 372.357L515.949 358.729C513.154 355.097 509.58 352.088 505.25 349.715C500.92 347.342 495.811 346.155 489.933 346.155H489.945Z" fill="#939BAA"/>
<path d="M607.259 329.806C610.474 326.174 614.527 323.453 619.421 321.631C624.315 319.822 629.412 318.911 634.738 318.911H662L654.456 354.965H629.292C626.773 354.965 624.399 355.528 622.156 356.643C619.913 357.758 617.958 359.304 616.279 361.258C614.599 363.211 613.268 365.525 612.297 368.174C611.313 370.835 610.833 373.699 610.833 376.768V443.207H567.211V318.911H604.548L607.271 329.806H607.259Z" fill="#939BAA"/>
</svg>
