<svg width="1004" height="196" viewBox="0 0 1004 196" fill="none" xmlns="http://www.w3.org/2000/svg">
<path d="M60.2404 40.1501H146.59C157.21 40.1501 165.82 31.54 165.82 20.92C165.82 10.3 157.21 1.69006 146.59 1.69006H60.8304C28.4804 1.69006 1.39044 28.1601 2.01044 60.5101C2.61044 91.8501 28.2004 117.08 59.6904 117.08H66.1004H103.85C114.47 117.08 123.08 125.69 123.08 136.31C123.08 146.93 114.47 155.54 103.85 155.54H21.2304C10.6104 155.54 2.00044 164.15 2.00044 174.77C2.00044 185.39 10.6104 194 21.2304 194H103.85C135.71 194 161.54 168.17 161.54 136.31C161.54 104.45 135.71 78.6201 103.85 78.6201H98.8604H59.6904C48.7604 78.6201 39.9604 69.5001 40.4804 58.4601C40.9704 48.1201 49.8804 40.1601 60.2304 40.1601L60.2404 40.1501Z" fill="#B53B20"/>
<path d="M284.411 20.92C284.411 10.3 275.801 1.69006 265.181 1.69006H148.371C137.751 1.69006 129.141 10.3 129.141 20.92C129.141 31.54 137.751 40.1501 148.371 40.1501H183.661C184.631 40.1501 185.411 40.9301 185.411 41.9001V174.77C185.411 185.39 194.021 194 204.641 194C215.261 194 223.871 185.39 223.871 174.77V41.9001C223.871 40.9301 224.651 40.1501 225.621 40.1501H265.181C275.801 40.1501 284.411 31.54 284.411 20.92Z" fill="#1635B1"/>
<path d="M365.391 38.02C365.391 17.96 352.631 1.68994 336.901 1.68994C321.171 1.68994 308.411 17.95 308.411 38.02C308.411 53.68 316.181 67.0199 327.071 72.1199L325.251 187.8C325.201 191.21 327.941 194 331.351 194H341.741C345.151 194 347.901 191.21 347.841 187.8L346.021 72.4299C357.281 67.5799 365.381 54.01 365.381 38.02H365.391Z" fill="white" stroke="#939BAA" stroke-width="3" stroke-linecap="round" stroke-linejoin="round"/>
<path d="M420.601 3.12999C417.901 3.26999 415.881 5.69 415.881 8.39V44.38C415.881 45.2 415.221 45.86 414.401 45.86H404.501C403.681 45.86 403.021 45.2 403.021 44.38V6.96998C403.021 4.26998 401.001 1.84997 398.301 1.70997C395.421 1.55997 393.051 3.84999 393.051 6.68999V44.38C393.051 45.2 392.391 45.86 391.571 45.86H381.671C380.851 45.86 380.191 45.2 380.191 44.38V8.39C380.191 5.69 378.171 3.26999 375.471 3.12999C372.591 2.97999 370.221 5.27 370.221 8.11V45.86C372.351 58.22 379.421 68.2 388.651 72.31L386.411 187.78C386.341 191.2 389.101 194 392.511 194H402.851C406.271 194 409.021 191.19 408.951 187.78L406.711 72.59C416.281 68.68 423.661 58.52 425.851 45.85V8.09999C425.851 5.25999 423.471 2.96998 420.601 3.11998V3.12999Z" fill="white" stroke="#939BAA" stroke-width="3" stroke-linecap="round" stroke-linejoin="round"/>
<path d="M449.851 137.16C449.851 128.3 451.511 120.31 454.831 113.2C458.151 106.09 462.641 100.06 468.301 95.1001C473.951 90.1501 480.541 86.3601 488.061 83.7301C495.581 81.1101 503.591 79.8 512.101 79.8C520.611 79.8 528.831 81.1101 536.411 83.7301C543.991 86.3501 550.581 90.1101 556.171 95.0101C561.771 99.9101 566.191 105.91 569.461 113.02C572.721 120.13 574.361 128.12 574.361 136.98C574.361 145.84 572.731 153.62 569.461 160.67C566.201 167.72 561.771 173.73 556.171 178.68C550.571 183.63 543.991 187.42 536.411 190.05C528.831 192.67 520.731 193.98 512.101 193.98C503.471 193.98 495.581 192.67 488.061 190.05C480.541 187.43 473.951 183.67 468.301 178.77C462.641 173.87 458.161 167.9 454.831 160.85C451.511 153.8 449.851 145.9 449.851 137.16ZM512.111 164.09C516.071 164.09 519.691 163.39 522.951 161.99C526.211 160.59 528.951 158.7 531.171 156.31C533.381 153.92 535.101 151.09 536.331 147.83C537.561 144.57 538.171 141.01 538.171 137.16C538.171 133.31 537.561 129.55 536.331 126.23C535.111 122.91 533.391 120.02 531.171 117.57C528.951 115.12 526.211 113.23 522.951 111.89C519.691 110.55 516.071 109.88 512.111 109.88C508.151 109.88 504.391 110.58 501.181 111.98C497.971 113.38 495.231 115.3 492.961 117.75C490.691 120.2 488.971 123.08 487.801 126.41C486.631 129.73 486.051 133.32 486.051 137.17C486.051 141.02 486.631 144.57 487.801 147.84C488.961 151.11 490.681 153.93 492.961 156.32C495.231 158.71 497.971 160.6 501.181 162C504.381 163.4 508.031 164.1 512.111 164.1V164.09Z" fill="#939BAA"/>
<path d="M613.591 94.14C616.271 91.11 619.651 88.8401 623.731 87.3201C627.811 85.8101 632.061 85.05 636.501 85.05H659.231L652.931 115.13H631.951C629.851 115.13 627.871 115.6 626.001 116.53C624.141 117.46 622.501 118.75 621.101 120.38C619.701 122.01 618.591 123.94 617.781 126.15C616.961 128.37 616.551 130.76 616.551 133.32V188.75H580.181V85.05H611.311L613.581 94.14H613.591Z" fill="#939BAA"/>
<path d="M753.541 49.38H789.741V188.75H758.611L755.811 180.36C750.911 184.44 745.401 187.47 739.291 189.45C733.171 191.43 726.841 192.36 720.321 192.25C712.161 192.13 704.701 190.68 697.941 187.88C691.181 185.08 685.351 181.23 680.451 176.34C675.551 171.44 671.761 165.67 669.081 159.03C666.401 152.38 665.061 145.1 665.061 137.17C665.061 129.24 666.491 121.52 669.341 114.7C672.191 107.88 676.101 102.02 681.051 97.12C686.011 92.22 691.831 88.41 698.541 85.67C705.241 82.93 712.441 81.56 720.141 81.56C726.441 81.56 732.351 82.32 737.891 83.83C743.431 85.35 748.651 87.74 753.541 91V49.38ZM725.741 162.17C733.091 162.17 738.971 159.84 743.401 155.18C747.831 150.52 750.041 144.51 750.041 137.17C750.041 129.83 747.831 123.33 743.401 118.72C738.971 114.12 733.081 111.81 725.741 111.81C718.401 111.81 712.511 114.11 708.081 118.72C703.651 123.33 701.431 129.47 701.431 137.17C701.431 144.87 703.641 150.52 708.081 155.18C712.511 159.84 718.401 162.17 725.741 162.17Z" fill="#939BAA"/>
<path d="M834.041 155.7C839.291 162.34 846.921 165.67 856.951 165.67C863.941 165.67 869.951 164.59 874.961 162.44C879.971 160.28 884.691 156.82 889.121 152.03L912.731 169.52C906.081 177.21 898.481 183.22 889.911 187.53C881.341 191.84 871.291 194 859.741 194C850.301 194 841.671 192.69 833.861 190.07C826.051 187.45 819.281 183.69 813.581 178.79C807.871 173.89 803.441 167.92 800.291 160.87C797.141 153.82 795.571 145.86 795.571 137C795.571 128.14 797.171 120.53 800.381 113.48C803.581 106.43 807.991 100.43 813.581 95.4701C819.181 90.5201 825.701 86.6701 833.161 83.9301C840.621 81.1901 848.611 79.8201 857.121 79.8201C865.631 79.8201 873.911 81.1301 881.251 83.7501C888.591 86.3701 894.891 90.1301 900.141 95.0301C905.391 99.9301 909.501 105.93 912.471 113.04C915.441 120.15 916.931 128.2 916.931 137.17L834.041 155.71V155.7ZM858.351 107.78C850.421 107.78 843.891 109.7 838.761 113.55C833.631 117.4 830.371 122.76 828.971 129.64L880.031 118.27C877.701 115.24 874.721 112.73 871.111 110.75C867.501 108.77 863.241 107.78 858.341 107.78H858.351Z" fill="#939BAA"/>
<path d="M956.161 94.14C958.841 91.11 962.221 88.8401 966.301 87.3201C970.381 85.8101 974.631 85.05 979.071 85.05H1001.8L995.511 115.13H974.531C972.431 115.13 970.451 115.6 968.581 116.53C966.711 117.46 965.081 118.75 963.681 120.38C962.281 122.01 961.171 123.94 960.361 126.15C959.541 128.37 959.141 130.76 959.141 133.32V188.75H922.771V85.05H953.901L956.171 94.14H956.161Z" fill="#939BAA"/>
</svg>
