<svg width="28" height="28" viewBox="0 0 28 28" fill="none" xmlns="http://www.w3.org/2000/svg">
<rect width="28" height="28" rx="4" fill="#DEE1E6"/>
<g clip-path="url(#clip0_1119_4679)">
<path d="M20.32 13.5C20.32 13.6326 20.2659 13.7598 20.1697 13.8536C20.0734 13.9473 19.9428 14 19.8067 14H8.51333C8.37719 14 8.24662 13.9473 8.15035 13.8536C8.05408 13.7598 8 13.6326 8 13.5C8 13.3674 8.05408 13.2402 8.15035 13.1464C8.24662 13.0527 8.37719 13 8.51333 13H19.8067C19.9428 13 20.0734 13.0527 20.1697 13.1464C20.2659 13.2402 20.32 13.3674 20.32 13.5Z" fill="black"/>
</g>
<defs>
<clipPath id="clip0_1119_4679">
<rect width="12.32" height="1.12" fill="white" transform="translate(8 13)"/>
</clipPath>
</defs>
</svg>
