<svg width="27" height="28" viewBox="0 0 27 28" fill="none" xmlns="http://www.w3.org/2000/svg">
<g clip-path="url(#clip0_1119_4647)">
<mask id="path-2-inside-1_1119_4647" fill="white">
<path fill-rule="evenodd" clip-rule="evenodd" d="M18.6476 15.2645C20.6849 13.7116 21.9998 11.2594 21.9998 8.5C21.9998 3.80558 18.1942 0 13.4998 0C8.80538 0 4.99981 3.80558 4.99981 8.5C4.99981 11.2582 6.31355 13.7096 8.34942 15.2625C4.11562 17.4304 0.924444 22.1932 -0.00341797 28H26.9966C26.069 22.1949 22.8795 17.4333 18.6476 15.2645Z"/>
</mask>
<path d="M18.6476 15.2645L17.7383 14.0715C17.3286 14.3837 17.1078 14.8844 17.1535 15.3975C17.1992 15.9106 17.505 16.3644 17.9635 16.5994L18.6476 15.2645ZM8.34942 15.2625L9.03309 16.5976C9.49161 16.3628 9.79758 15.9092 9.84346 15.3961C9.88935 14.883 9.66873 14.3823 9.25915 14.0698L8.34942 15.2625ZM-0.00341797 28L-1.48463 27.7633C-1.55392 28.197 -1.42968 28.6392 -1.14469 28.9734C-0.859702 29.3075 -0.44259 29.5 -0.00341797 29.5L-0.00341797 28ZM26.9966 28V29.5C27.4358 29.5 27.8529 29.3075 28.1379 28.9734C28.4228 28.6392 28.5471 28.197 28.4778 27.7633L26.9966 28ZM20.4998 8.5C20.4998 10.7715 19.4195 12.7902 17.7383 14.0715L19.5569 16.4575C21.9504 14.6331 23.4998 11.7472 23.4998 8.5H20.4998ZM13.4998 1.5C17.3658 1.5 20.4998 4.63401 20.4998 8.5H23.4998C23.4998 2.97715 19.0227 -1.5 13.4998 -1.5V1.5ZM6.49981 8.5C6.49981 4.63401 9.63381 1.5 13.4998 1.5V-1.5C7.97696 -1.5 3.49981 2.97715 3.49981 8.5H6.49981ZM9.25915 14.0698C7.57923 12.7884 6.49981 10.7706 6.49981 8.5H3.49981C3.49981 11.7458 5.04786 14.6307 7.4397 16.4551L9.25915 14.0698ZM7.66576 13.9273C2.92057 16.3571 -0.497861 21.5878 -1.48463 27.7633L1.47779 28.2367C2.34675 22.7985 5.31067 18.5037 9.03309 16.5976L7.66576 13.9273ZM-0.00341797 29.5H26.9966V26.5H-0.00341797V29.5ZM28.4778 27.7633C27.4913 21.5897 24.0747 16.3603 19.3317 13.9296L17.9635 16.5994C21.6843 18.5063 24.6467 22.8002 25.5154 28.2367L28.4778 27.7633Z" fill="#80899D" mask="url(#path-2-inside-1_1119_4647)"/>
</g>
<defs>
<clipPath id="clip0_1119_4647">
<rect width="27" height="28" rx="2" fill="white"/>
</clipPath>
</defs>
</svg>
