<svg width="26" height="28" viewBox="0 0 26 28" fill="none" xmlns="http://www.w3.org/2000/svg">
<g clip-path="url(#clip0_1119_4637)">
<rect x="0.75" y="9.75" width="24.5" height="17.5" rx="1.25" stroke="#80899D" stroke-width="1.5" stroke-linecap="round" stroke-linejoin="round"/>
<path fill-rule="evenodd" clip-rule="evenodd" d="M5.5 9H4.00024V9.0666C4.00008 9.04442 4 9.02222 4 9C4 4.02944 8.02944 0 13 0C17.9706 0 22 4.02944 22 9H20.5C20.5 4.85786 17.1421 1.5 13 1.5C8.85786 1.5 5.5 4.85786 5.5 9ZM7.5 9C7.5 5.96243 9.96243 3.5 13 3.5C16.0376 3.5 18.5 5.96243 18.5 9H17C17 6.79086 15.2091 5 13 5C10.7909 5 9 6.79086 9 9H7.5Z" fill="#80899D"/>
<path fill-rule="evenodd" clip-rule="evenodd" d="M14.3034 18.517C14.7299 18.1502 15 17.6067 15 17C15 15.8954 14.1046 15 13 15C11.8954 15 11 15.8954 11 17C11 17.6067 11.2701 18.1502 11.6966 18.517L11.2392 20.8039C11.1155 21.4227 11.5888 22 12.2198 22H13.7802C14.4112 22 14.8845 21.4227 14.7608 20.8039L14.3034 18.517Z" fill="#80899D"/>
</g>
<defs>
<clipPath id="clip0_1119_4637">
<rect width="26" height="28" fill="white"/>
</clipPath>
</defs>
</svg>
