<svg width="28" height="28" viewBox="0 0 28 28" fill="none" xmlns="http://www.w3.org/2000/svg">
<rect width="28" height="28" rx="4" fill="#DEE1E6"/>
<path d="M20.32 14C20.32 14.1361 20.2659 14.2667 20.1697 14.3629C20.0734 14.4592 19.9428 14.5133 19.8067 14.5133H14.6733V19.6466C14.6733 19.7828 14.6193 19.9133 14.523 20.0096C14.4267 20.1059 14.2961 20.16 14.16 20.16C14.0239 20.16 13.8933 20.1059 13.797 20.0096C13.7008 19.9133 13.6467 19.7828 13.6467 19.6466V14.5133H8.51333C8.37719 14.5133 8.24662 14.4592 8.15035 14.3629C8.05408 14.2667 8 14.1361 8 14C8 13.8638 8.05408 13.7333 8.15035 13.637C8.24662 13.5407 8.37719 13.4866 8.51333 13.4866H13.6467V8.3533C13.6467 8.21715 13.7008 8.08659 13.797 7.99032C13.8933 7.89405 14.0239 7.83997 14.16 7.83997C14.2961 7.83997 14.4267 7.89405 14.523 7.99032C14.6193 8.08659 14.6733 8.21715 14.6733 8.3533V13.4866H19.8067C19.9428 13.4866 20.0734 13.5407 20.1697 13.637C20.2659 13.7333 20.32 13.8638 20.32 14Z" fill="black"/>
</svg>
