<svg width="28" height="28" viewBox="0 0 28 28" fill="none" xmlns="http://www.w3.org/2000/svg">
<g clip-path="url(#clip0_1119_4703)">
<mask id="path-1-inside-1_1119_4703" fill="white">
<path fill-rule="evenodd" clip-rule="evenodd" d="M3 3C1.34315 3 0 4.34315 0 6V20C0 21.6569 1.34315 23 3 23H4.31308L4.58118 26.4253C4.64977 27.3016 5.73432 27.6695 6.32188 27.0157L9.93115 23H25C26.6569 23 28 21.6569 28 20V6C28 4.34315 26.6569 3 25 3H3Z"/>
</mask>
<path d="M4.31308 23L5.80851 22.883C5.74741 22.1023 5.09611 21.5 4.31308 21.5V23ZM4.58118 26.4253L6.07661 26.3082L4.58118 26.4253ZM6.32188 27.0157L7.43749 28.0184H7.43749L6.32188 27.0157ZM9.93115 23V21.5C9.50556 21.5 9.10002 21.6808 8.81553 21.9973L9.93115 23ZM1.5 6C1.5 5.17157 2.17157 4.5 3 4.5V1.5C0.514719 1.5 -1.5 3.51472 -1.5 6H1.5ZM1.5 20V6H-1.5V20H1.5ZM3 21.5C2.17157 21.5 1.5 20.8284 1.5 20H-1.5C-1.5 22.4853 0.514719 24.5 3 24.5V21.5ZM4.31308 21.5H3V24.5H4.31308V21.5ZM2.81766 23.117L3.08576 26.5423L6.07661 26.3082L5.80851 22.883L2.81766 23.117ZM3.08576 26.5423C3.25723 28.7331 5.96859 29.6527 7.43749 28.0184L5.20626 26.013C5.50004 25.6862 6.04232 25.8701 6.07661 26.3082L3.08576 26.5423ZM7.43749 28.0184L11.0468 24.0027L8.81553 21.9973L5.20626 26.013L7.43749 28.0184ZM25 21.5H9.93115V24.5H25V21.5ZM26.5 20C26.5 20.8284 25.8284 21.5 25 21.5V24.5C27.4853 24.5 29.5 22.4853 29.5 20H26.5ZM26.5 6V20H29.5V6H26.5ZM25 4.5C25.8284 4.5 26.5 5.17157 26.5 6H29.5C29.5 3.51472 27.4853 1.5 25 1.5V4.5ZM3 4.5H25V1.5H3V4.5Z" fill="#ADB3C0" mask="url(#path-1-inside-1_1119_4703)"/>
<rect x="24.7983" y="1.59387" width="2.66097" height="7.98292" rx="0.443495" transform="rotate(36.9984 24.7983 1.59387)" fill="#ADB3C0"/>
<rect x="25.9995" width="2.66097" height="1.77398" rx="0.443495" transform="rotate(36.9984 25.9995 0)" fill="#ADB3C0"/>
<path d="M19.6666 10.083C19.6968 10.3328 19.9286 10.5074 20.177 10.4676L21.4276 10.2672C21.8137 10.2054 21.9366 9.71044 21.6243 9.47513L20.2216 8.41818C19.9093 8.18287 19.4675 8.43748 19.5144 8.82566L19.6666 10.083Z" fill="#ADB3C0"/>
<path d="M5 8H15.5" stroke="#ADB3C0" stroke-width="1.5" stroke-linecap="round" stroke-linejoin="round"/>
<path d="M5 13H23" stroke="#ADB3C0" stroke-width="1.5" stroke-linecap="round" stroke-linejoin="round"/>
<path d="M5 18H23" stroke="#ADB3C0" stroke-width="1.5" stroke-linecap="round" stroke-linejoin="round"/>
</g>
<defs>
<clipPath id="clip0_1119_4703">
<rect width="28" height="28" fill="white"/>
</clipPath>
</defs>
</svg>
