<svg width="92" height="28" viewBox="0 0 92 28" fill="none" xmlns="http://www.w3.org/2000/svg">
<rect width="28" height="28" rx="4" fill="#DEE1E6"/>
<g clip-path="url(#clip0_1119_4678)">
<path d="M20.32 13.5C20.32 13.6326 20.2659 13.7598 20.1697 13.8536C20.0734 13.9473 19.9428 14 19.8067 14H8.51333C8.37719 14 8.24662 13.9473 8.15035 13.8536C8.05408 13.7598 8 13.6326 8 13.5C8 13.3674 8.05408 13.2402 8.15035 13.1464C8.24662 13.0527 8.37719 13 8.51333 13H19.8067C19.9428 13 20.0734 13.0527 20.1697 13.1464C20.2659 13.2402 20.32 13.3674 20.32 13.5Z" fill="black"/>
</g>
<rect x="32.5" y="0.5" width="27" height="27" rx="3.5" fill="white"/>
<rect x="32.5" y="0.5" width="27" height="27" rx="3.5" stroke="#DEE1E6"/>
<path d="M47.0625 20H45.6406V10.1562H45.5781L42.8281 11.9844V10.5625L45.6406 8.6875H47.0625V20Z" fill="black"/>
<rect x="64" width="28" height="28" rx="4" fill="#DEE1E6"/>
<path d="M84.32 14C84.32 14.1361 84.2659 14.2667 84.1697 14.3629C84.0734 14.4592 83.9428 14.5133 83.8067 14.5133H78.6733V19.6466C78.6733 19.7828 78.6193 19.9133 78.523 20.0096C78.4267 20.1059 78.2961 20.16 78.16 20.16C78.0239 20.16 77.8933 20.1059 77.797 20.0096C77.7008 19.9133 77.6467 19.7828 77.6467 19.6466V14.5133H72.5133C72.3772 14.5133 72.2466 14.4592 72.1504 14.3629C72.0541 14.2667 72 14.1361 72 14C72 13.8638 72.0541 13.7333 72.1504 13.637C72.2466 13.5407 72.3772 13.4866 72.5133 13.4866H77.6467V8.3533C77.6467 8.21715 77.7008 8.08659 77.797 7.99032C77.8933 7.89405 78.0239 7.83997 78.16 7.83997C78.2961 7.83997 78.4267 7.89405 78.523 7.99032C78.6193 8.08659 78.6733 8.21715 78.6733 8.3533V13.4866H83.8067C83.9428 13.4866 84.0734 13.5407 84.1697 13.637C84.2659 13.7333 84.32 13.8638 84.32 14Z" fill="black"/>
<defs>
<clipPath id="clip0_1119_4678">
<rect width="12.32" height="1.12" fill="white" transform="translate(8 13)"/>
</clipPath>
</defs>
</svg>
