<svg width="20" height="20" viewBox="0 0 20 20" fill="none" xmlns="http://www.w3.org/2000/svg">
<path fill-rule="evenodd" clip-rule="evenodd" d="M0.325437 0.325437C0.759353 -0.108479 1.46287 -0.108479 1.89679 0.325437L10 8.42865L18.1032 0.325437C18.5371 -0.108479 19.2407 -0.108479 19.6746 0.325437C20.1085 0.759353 20.1085 1.46287 19.6746 1.89679L11.5713 10L19.6746 18.1032C20.1085 18.5371 20.1085 19.2407 19.6746 19.6746C19.2407 20.1085 18.5371 20.1085 18.1032 19.6746L10 11.5713L1.89679 19.6746C1.46287 20.1085 0.759353 20.1085 0.325437 19.6746C-0.108479 19.2407 -0.108479 18.5371 0.325437 18.1032L8.42865 10L0.325437 1.89679C-0.108479 1.46287 -0.108479 0.759353 0.325437 0.325437Z" fill="black"/>
</svg>
